<svg width="25" height="26" viewBox="0 0 25 26" fill="none" xmlns="http://www.w3.org/2000/svg">
<path d="M0.386963 4.97131C0.386963 2.76217 2.17782 0.971313 4.38696 0.971313H20.5586C22.7677 0.971313 24.5586 2.76217 24.5586 4.97131V21.1308C24.5586 23.34 22.7677 25.1308 20.5586 25.1308H4.38696C2.17782 25.1308 0.386963 23.34 0.386963 21.1308V4.97131Z" fill="#FF6700"/>
<path d="M18.8096 6.07079H18.0339V4.77771H16.7402V6.07079H8.20526V4.77771H6.91153V6.07079H6.13591C5.06597 6.07079 4.19531 6.94101 4.19531 8.0104V19.3877C4.19531 20.454 5.06597 21.3242 6.13591 21.3242H18.8096C19.8795 21.3242 20.7502 20.454 20.7502 19.3846V8.0104C20.7502 6.94101 19.8795 6.07079 18.8096 6.07079ZM19.4564 19.3846C19.4564 19.74 19.1652 20.0311 18.8096 20.0311H6.13591C5.78029 20.0311 5.48904 19.74 5.48904 19.3846V10.854H19.4564V19.3846ZM19.4564 9.56087H5.48904V8.0104C5.48904 7.65496 5.78029 7.36387 6.13591 7.36387H6.91153V8.65694H8.20526V7.36387H16.7402V8.65694H18.0339V7.36387H18.8096C19.1652 7.36387 19.4564 7.65496 19.4564 8.0104V9.56087Z" fill="white"/>
<path d="M7.94778 12.2113H6.65405V13.5044H7.94778V12.2113Z" fill="white"/>
<path d="M10.5321 12.2113H9.2384V13.5044H10.5321V12.2113Z" fill="white"/>
<path d="M13.1197 12.2113H11.8259V13.5044H13.1197V12.2113Z" fill="white"/>
<path d="M15.7071 12.2113H14.4133V13.5044H15.7071V12.2113Z" fill="white"/>
<path d="M18.2945 12.2113H17.0007V13.5044H18.2945V12.2113Z" fill="white"/>
<path d="M7.94778 14.7975H6.65405V16.0906H7.94778V14.7975Z" fill="white"/>
<path d="M10.5321 14.7975H9.2384V16.0906H10.5321V14.7975Z" fill="white"/>
<path d="M13.1197 14.7975H11.8259V16.0906H13.1197V14.7975Z" fill="white"/>
<path d="M15.7071 14.7975H14.4133V16.0906H15.7071V14.7975Z" fill="white"/>
<path d="M7.94778 17.3806H6.65405V18.6737H7.94778V17.3806Z" fill="white"/>
<path d="M10.5321 17.3806H9.2384V18.6737H10.5321V17.3806Z" fill="white"/>
<path d="M13.1197 17.3806H11.8259V18.6737H13.1197V17.3806Z" fill="white"/>
<path d="M15.7071 17.3806H14.4133V18.6737H15.7071V17.3806Z" fill="white"/>
<path d="M18.2945 14.7975H17.0007V16.0906H18.2945V14.7975Z" fill="white"/>
</svg>
